<svg xmlns="http://www.w3.org/2000/svg" viewBox="0 0 250.867 40.749"><path fill="#001E45" d="M35.603 28.846c1.507 1.246 1.819 3.482.727 4.73-4.053 4.521-9.459 7.172-15.436 7.172C9.356 40.749 0 31.913 0 20.374 0 8.836 9.356 0 20.894 0c5.977 0 11.383 2.651 15.436 7.172 1.092 1.248.78 3.483-.727 4.73-1.559 1.3-3.638 1.196-4.782-.104-2.807-2.65-5.457-4.729-9.927-4.729-7.328 0-13.201 5.977-13.201 13.305 0 7.328 5.873 13.306 13.201 13.306 4.47 0 7.12-2.079 9.927-4.73 1.144-1.299 3.223-1.403 4.782-.104M61.544 40.749c-11.59 0-20.894-8.836-20.894-20.375C40.65 8.836 49.954 0 61.544 0c11.538 0 20.894 8.836 20.894 20.374 0 11.539-9.356 20.375-20.894 20.375m0-33.68c-7.329 0-13.202 5.977-13.202 13.305 0 7.38 5.873 13.306 13.202 13.306 7.38 0 13.201-5.926 13.201-13.306 0-7.328-5.821-13.305-13.201-13.305M127.902 4.417c0-1.975 1.353-3.534 3.016-3.534h26.345c1.663 0 3.014 1.559 3.014 3.534 0 1.975-1.351 3.535-3.014 3.535h-9.453v29.209c0 1.715-1.664 3.119-3.69 3.119s-3.689-1.404-3.689-3.119V7.953h-9.512c-1.665 0-3.017-1.56-3.017-3.536M164.225 4.002c0-1.715 1.663-3.118 3.69-3.118h22.244c1.716 0 3.119 1.559 3.119 3.534s-1.403 3.535-3.119 3.535h-18.555v8.835h14.969c1.716 0 3.118 1.559 3.118 3.534 0 1.976-1.402 3.535-3.118 3.535h-14.969v8.938h18.555c1.716 0 3.119 1.56 3.119 3.535s-1.403 3.534-3.119 3.534h-22.244c-2.027 0-3.69-1.403-3.69-3.118V4.002zM197.574 3.898c0-1.923 2.027-3.43 4.522-3.43 1.714 0 3.222.727 3.949 1.819l11.278 14.189 11.383-14.345c.779-.988 2.234-1.663 3.897-1.663 2.495 0 4.47 1.507 4.47 3.43v33.265c0 1.715-1.663 3.117-3.689 3.117-2.027 0-3.69-1.402-3.69-3.117v-24.74h-.156l-9.044 11.85a3.995 3.995 0 0 1-6.392 0l-8.993-11.85h-.155v24.74c0 1.715-1.663 3.117-3.689 3.117-2.027 0-3.69-1.402-3.69-3.117V3.898zM243.486 3.586c0-1.715 1.663-3.118 3.691-3.118 2.026 0 3.689 1.403 3.689 3.118v33.577c0 1.767-1.663 3.117-3.689 3.117-2.028 0-3.691-1.351-3.691-3.117V3.586zM120.583.468c-2.028 0-3.691 1.403-3.691 3.118v23.566L94.307 1.899a4.123 4.123 0 0 0-2.359-1.31 4.222 4.222 0 0 0-.957-.121c-2.028 0-3.691 1.403-3.691 3.118v33.577c0 1.767 1.663 3.117 3.691 3.117 2.027 0 3.69-1.351 3.69-3.117V13.39l22.681 25.36c.039.043.084.074.124.115.66.859 1.801 1.414 3.096 1.414 2.027 0 3.69-1.351 3.69-3.117V3.586c0-1.715-1.663-3.118-3.689-3.118"/></svg>